<svg xmlns="http://www.w3.org/2000/svg" xmlns:xlink="http://www.w3.org/1999/xlink" width="50" height="50" viewBox="0 0 50 50">
  <defs>
    <linearGradient id="linear-gradient" x1="0.499" y1="0.996" x2="0.499" y2="-0.001" gradientUnits="objectBoundingBox">
      <stop offset="0" stop-color="#d392b4"/>
      <stop offset="1" stop-color="#f6e9f0"/>
    </linearGradient>
    <clipPath id="clip-path">
      <circle id="Ellipse_3" data-name="Ellipse 3" cx="25" cy="25" r="25" fill="#fff" stroke="#823493" stroke-width="1"/>
    </clipPath>
    <clipPath id="clip-path-2">
      <path id="Tracé_65" data-name="Tracé 65" d="M70.673,123.3s-4.983,1.256-7.287,1.968a10.548,10.548,0,0,0-5.318,2.973c-1.884,2.052-1.591,4.523-1.591,5.988a1.39,1.39,0,0,0,1.256,1.34H92.073a1.39,1.39,0,0,0,1.256-1.34c0-1.424.293-3.895-1.591-5.988a11.055,11.055,0,0,0-5.318-2.973c-2.345-.712-7.287-1.968-7.287-1.968" transform="translate(-56.461 -123.3)" fill="url(#linear-gradient)"/>
    </clipPath>
    <linearGradient id="linear-gradient-2" x1="0.5" y1="1" x2="0.5" y2="0.706" xlink:href="#linear-gradient"/>
    <linearGradient id="linear-gradient-3" x1="0.498" y1="1" x2="0.498" y2="-0.001" gradientUnits="objectBoundingBox">
      <stop offset="0" stop-color="#c099c9"/>
      <stop offset="1" stop-color="#823493"/>
    </linearGradient>
    <linearGradient id="linear-gradient-4" x1="0.499" y1="1" x2="0.499" y2="-0.001" xlink:href="#linear-gradient-3"/>
  </defs>
  <g id="Groupe_2549" data-name="Groupe 2549" transform="translate(-974 -1296)">
    <circle id="Ellipse_21" data-name="Ellipse 21" cx="25" cy="25" r="25" transform="translate(974 1296)" fill="#271760"/>
    <g id="Groupe_de_masques_13" data-name="Groupe de masques 13" transform="translate(980.557 1333.73)" clip-path="url(#clip-path-2)">
      <path id="Tracé_69" data-name="Tracé 69" d="M25,0A25,25,0,1,1,0,25,25,25,0,0,1,25,0Z" transform="translate(-6.521 -37.72)" fill="url(#linear-gradient-2)"/>
    </g>
    <g id="icon_speaker_woman" transform="translate(983.17 1302.155)">
      <path id="Tracé_66" data-name="Tracé 66" d="M94.646,122.221A9.7,9.7,0,0,1,90.5,121.3v2.471a2.107,2.107,0,0,0,.5,1.214c.251.251,2.387,2.848,2.387,2.848v6.533h2.6v-6.533s2.136-2.6,2.387-2.848a2,2,0,0,0,.5-1.214V121.3a10.23,10.23,0,0,1-4.23.921Z" transform="translate(-78.858 -90.562)" fill="url(#linear-gradient-3)"/>
      <path id="Tracé_67" data-name="Tracé 67" d="M85.188,76.963c3.769,0,9.171,0,9.171-8.5,0-4.648-.042-20.562-15.83-20.562h0C62.742,47.9,62.7,63.813,62.7,68.462c0,8.543,5.4,8.5,9.171,8.5Z" transform="translate(-62.7 -47.9)" fill="url(#linear-gradient-4)"/>
      <path id="Tracé_68" data-name="Tracé 68" d="M76.8,74.686v6.952a9.83,9.83,0,0,0,9.841,9.841h0a9.83,9.83,0,0,0,9.841-9.841V75.314a3.928,3.928,0,0,0-4.188-3.6c-2.01,0-5.025-.544-6.784-2.513-1.047-1.214-2.261-.921-2.68.126A3.354,3.354,0,0,1,79.9,71.713,3.008,3.008,0,0,0,76.8,74.686Z" transform="translate(-70.895 -59.82)" fill="#f6e9f0"/>
    </g>
  </g>
</svg>
