<svg xmlns="http://www.w3.org/2000/svg" xmlns:xlink="http://www.w3.org/1999/xlink" width="88" height="88" viewBox="0 0 88 88">
  <defs>
    <filter id="Ellipse_12" x="0" y="0" width="88" height="88" filterUnits="userSpaceOnUse">
      <feOffset dy="3" input="SourceAlpha"/>
      <feGaussianBlur stdDeviation="3" result="blur"/>
      <feFlood flood-opacity="0.161"/>
      <feComposite operator="in" in2="blur"/>
      <feComposite in="SourceGraphic"/>
    </filter>
    <linearGradient id="linear-gradient" x1="0.5" y1="1" x2="0.5" gradientUnits="objectBoundingBox">
      <stop offset="0" stop-color="#d392b4"/>
      <stop offset="1" stop-color="#f6e9f0"/>
    </linearGradient>
    <linearGradient id="linear-gradient-2" x1="0.498" x2="0.498" y2="1" gradientUnits="objectBoundingBox">
      <stop offset="0" stop-color="#c099c9"/>
      <stop offset="1" stop-color="#823493"/>
    </linearGradient>
    <linearGradient id="linear-gradient-3" x1="0.5" y1="0" x2="0.5" y2="1" xlink:href="#linear-gradient-2"/>
  </defs>
  <g id="Groupe_11" data-name="Groupe 11" transform="translate(-739 -2659)">
    <g transform="matrix(1, 0, 0, 1, 739, 2659)" filter="url(#Ellipse_12)">
      <circle id="Ellipse_12-2" data-name="Ellipse 12" cx="35" cy="35" r="35" transform="translate(9 6)" fill="#fff"/>
    </g>
    <g id="icon_ticket" transform="translate(762.998 2685.24)">
      <path id="Tracé_13" data-name="Tracé 13" d="M95.754,73.1v-3.5a1.927,1.927,0,0,0-1.927-1.927H57.682a1.927,1.927,0,0,0-1.932,1.927v3.5a1.927,1.927,0,0,0,1.932,1.927H57.6a1.868,1.868,0,1,1,0,3.732h.086a1.932,1.932,0,0,0-1.932,1.932v3.5a1.927,1.927,0,0,0,1.932,1.923H57.6a1.868,1.868,0,0,1,0,3.737h.086a1.927,1.927,0,0,0-1.932,1.927v3.5A1.927,1.927,0,0,0,57.682,97.2H93.827a1.927,1.927,0,0,0,1.927-1.927v-3.5a1.927,1.927,0,0,0-1.927-1.927h.182a1.868,1.868,0,1,1,0-3.737h-.182a1.927,1.927,0,0,0,1.927-1.927V80.695a1.927,1.927,0,0,0-1.927-1.932h.182a1.868,1.868,0,1,1,0-3.732h-.182A1.927,1.927,0,0,0,95.754,73.1Z" transform="translate(-55.75 -67.68)" fill="url(#linear-gradient)"/>
      <path id="Tracé_14" data-name="Tracé 14" d="M80.674,98.894a1.327,1.327,0,0,1-.873-.327l-3.446-3.014a1.327,1.327,0,0,1,1.746-2l2.514,2.2L86.2,90.175a1.324,1.324,0,0,1,1.873,1.873l-6.46,6.473A1.3,1.3,0,0,1,80.674,98.894Z" transform="translate(-66.768 -79.737)" fill="url(#linear-gradient-2)"/>
      <path id="Tracé_15" data-name="Tracé 15" d="M115.66,97.2H126.5a1.927,1.927,0,0,0,1.927-1.927v-3.5A1.927,1.927,0,0,0,126.5,89.85h.182a1.868,1.868,0,1,1,0-3.737H126.5a1.927,1.927,0,0,0,1.927-1.927V80.695a1.927,1.927,0,0,0-1.927-1.932h.182a1.868,1.868,0,1,1,0-3.732H126.5a1.927,1.927,0,0,0,1.927-1.927v-3.5A1.927,1.927,0,0,0,126.5,67.68H115.66Z" transform="translate(-88.425 -67.68)" fill="url(#linear-gradient-3)"/>
    </g>
  </g>
</svg>
